:FULLY-SPECIFIED
:FORCE-ALL-JOINTS-BE-3DOF
:DEGREES
1
root 7.46593 15.9937 -36.7321 7.11356 1.31487 -3.66776
lfemur -40.6897 6.42258 -16.3516
ltibia 43.9106 0 0
lfoot -14.6186 8.34667 0
ltoes -11.8487 0 0
rfemur -9.89801 4.72659 30.1099
rtibia 24.1198 0 0
rfoot 0 0 0
rtoes 0 0 0
lowerback -4.29912 0.189404 0.939401
upperback -1.51886 0.185188 2.55702
thorax 0.845091 0.0960327 2.10705
lowerneck -18.6579 -5.17414 -13.3376
upperneck 13.6797 -6.63107 16.9236
head 8.38994 -2.28192 7.17028
lclavicle 6.33626e-15 1.59028e-14 0
lhumerus -35.9267 -2.97855 86.2544
lradius 27.4056 0 0
lwrist 7.30557 0 0
lhand -13.3003 -23.0211 0
lfingers 7.12502 0 0
lthumb 12.8038 6.56624 0
rclavicle 6.33626e-15 1.59028e-14 0
rhumerus -38.7688 17.4551 -84.1031
rradius 56.1989 0 0
rwrist -28.5696 0 0
rhand -33.2015 -25.7513 0
rfingers 7.12502 0 0
rthumb -6.4087 -55.6344 0
2
root 7.48607 15.9858 -36.5835 7.12226 1.06537 -3.73509
lfemur -40.7671 6.48359 -16.2672
ltibia 43.7119 -0 0
lfoot -14.2407 8.31567 -0.0041136
ltoes -11.653 0 0
rfemur -9.07239 4.74027 30.0396
rtibia 23.5315 -0 0
rfoot -0.061325 0.0233119 -0.000499114
rtoes -0.698793 0 0
lowerback -4.40625 0.213428 0.980121
upperback -1.51179 0.210907 2.59319
thorax 0.911477 0.10929 2.12602
lowerneck -18.7196 -5.16271 -13.3167
upperneck 13.7329 -6.60944 16.8691
head 8.41202 -2.27252 7.15198
lclavicle -3.14018e-14 -4.8901e-14 0
lhumerus -36.1235 -3.08599 86.3827
lradius 27.3021 -0 0
lwrist 7.12199 0 0
lhand -12.8126 -22.8857 0.0232969
lfingers 7.12502 -0 0
lthumb 13.2719 6.6442 0.0128548
rclavicle -3.14018e-14 -4.8901e-14 0
rhumerus -38.9339 17.5264 -84.3357
rradius 56.1966 -0 0
rwrist -28.5267 0 0
rhand -33.1442 -25.9657 -0.00429547
rfingers 7.12502 -0 0
rthumb -6.3534 -55.8502 -0.0041739
3
root 7.50621 15.9779 -36.4349 7.13124 0.815878 -3.80246
lfemur -40.8444 6.54472 -16.1829
ltibia 43.5133 -0 0
lfoot -13.8629 8.28463 -0.00802264
ltoes -11.4572 0 0
rfemur -8.24677 4.75496 29.9696
rtibia 22.9432 -0 0
rfoot -0.12265 0.0466244 -0.000973276
rtoes -1.39759 0 0
lowerback -4.51336 0.237528 1.0208
upperback -1.50471 0.236622 2.62936
thorax 0.977868 0.122526 2.145
lowerneck -18.7814 -5.15126 -13.2958
upperneck 13.786 -6.58777 16.8145
head 8.4341 -2.26311 7.13369
lclavicle -3.14018e-14 -4.8901e-14 0
lhumerus -36.3205 -3.19298 86.5114
lradius 27.1986 -0 0
lwrist 6.93841 0 0
lhand -12.3249 -22.7501 0.0454403
lfingers 7.12502 -0 0
lthumb 13.7399 6.72226 0.0250723
rclavicle -3.14018e-14 -4.8901e-14 0
rhumerus -39.0994 17.5971 -84.5686
rradius 56.1942 -0 0
rwrist -28.4838 0 0
rhand -33.0869 -26.1801 -0.00837656
rfingers 7.12502 -0 0
rthumb -6.29808 -56.066 -0.00813949
4
root 7.52634 15.97 -36.2864 7.14053 0.566398 -3.86986
lfemur -40.9217 6.60596 -16.0987
ltibia 43.3146 -0 0
lfoot -13.485 8.25358 -0.0117269
ltoes -11.2615 0 0
rfemur -7.42115 4.77066 29.8997
rtibia 22.3549 -0 0
rfoot -0.183976 0.0699374 -0.00142249
rtoes -2.09638 0 0
lowerback -4.62045 0.261703 1.06143
upperback -1.49761 0.262332 2.66554
thorax 1.04426 0.135739 2.16399
lowerneck -18.8431 -5.13979 -13.2749
upperneck 13.8391 -6.56604 16.76
head 8.45617 -2.25369 7.11539
lclavicle -3.14018e-14 -4.8901e-14 0
lhumerus -36.5178 -3.29954 86.6404
lradius 27.0952 -0 0
lwrist 6.75483 0 0
lhand -11.8371 -22.6142 0.0664284
lfingers 7.12502 -0 0
lthumb 14.208 6.80042 0.0366517
rclavicle -3.14018e-14 -4.8901e-14 0
rhumerus -39.2652 17.6671 -84.8017
rradius 56.1919 -0 0
rwrist -28.441 0 0
rhand -33.0296 -26.3945 -0.0122432
rfingers 7.12502 -0 0
rthumb -6.24275 -56.2818 -0.0118967
5
root 7.54648 15.962 -36.1378 7.1501 0.316929 -3.9373
lfemur -40.9988 6.66731 -16.0146
ltibia 43.1159 -0 0
lfoot -13.1071 8.2225 -0.0152263
ltoes -11.0657 0 0
rfemur -6.59552 4.78736 29.8301
rtibia 21.7666 -0 0
rfoot -0.245301 0.0932508 -0.00184674
rtoes -2.79517 0 0
lowerback -4.72753 0.285955 1.10201
upperback -1.49049 0.288038 2.70172
thorax 1.11066 0.148931 2.18301
lowerneck -18.9048 -5.12829 -13.254
upperneck 13.8922 -6.54426 16.7055
head 8.47824 -2.24427 7.09711
lclavicle -3.14018e-14 -4.8901e-14 0
lhumerus -36.7153 -3.40564 86.7698
lradius 26.9917 -0 0
lwrist 6.57125 0 0
lhand -11.3493 -22.4783 0.0862595
lfingers 7.12502 -0 0
lthumb 14.6761 6.87867 0.0475922
rclavicle -3.14018e-14 -4.8901e-14 0
rhumerus -39.4314 17.7365 -85.0352
rradius 56.1896 -0 0
rwrist -28.3981 0 0
rhand -32.9723 -26.609 -0.0158954
rfingers 7.12502 -0 0
rthumb -6.18741 -56.4976 -0.0154455
6
root 7.56662 15.9541 -35.9892 7.15997 0.0674711 -4.00478
lfemur -41.0759 6.72878 -15.9305
ltibia 42.9173 -0 0
lfoot -12.7292 8.1914 -0.0185207
ltoes -10.87 0 0
rfemur -5.7699 4.80505 29.7608
rtibia 21.1784 -0 0
rfoot -0.306627 0.116565 -0.00224605
rtoes -3.49396 0 0
lowerback -4.83459 0.310283 1.14255
upperback -1.48336 0.313739 2.7379
thorax 1.17707 0.1621 2.20203
lowerneck -18.9665 -5.11678 -13.2331
upperneck 13.9453 -6.52243 16.6511
head 8.50031 -2.23484 7.07882
lclavicle -3.14018e-14 -4.8901e-14 0
lhumerus -36.9131 -3.51131 86.8997
lradius 26.8882 -0 0
lwrist 6.38768 0 0
lhand -10.8614 -22.3421 0.104932
lfingers 7.12502 -0 0
lthumb 15.1442 6.957 0.0578931
rclavicle -3.14018e-14 -4.8901e-14 0
rhumerus -39.598 17.8053 -85.269
rradius 56.1872 -0 0
rwrist -28.3552 0 0
rhand -32.915 -26.8234 -0.019333
rfingers 7.12502 -0 0
rthumb -6.13205 -56.7134 -0.0187859
